<?xml version="1.0" standalone="no"?>
<!DOCTYPE svg PUBLIC "-//W3C//DTD SVG 1.1//EN" "http://www.w3.org/Graphics/SVG/1.1/DTD/svg11.dtd" >
<svg xmlns="http://www.w3.org/2000/svg">
<metadata>
Created by FontForge 20120731 at Sat Sep 24 12:07:31 2016
 By admin
</metadata>
<defs>
<font id="iconfont" horiz-adv-x="1024" >
  <font-face 
    font-family="iconfont"
    font-weight="500"
    font-stretch="normal"
    units-per-em="1024"
    panose-1="2 0 6 3 0 0 0 0 0 0"
    ascent="896"
    descent="-128"
    x-height="792"
    bbox="-0.0737762 -212 1065 896"
    underline-thickness="50"
    underline-position="-100"
    unicode-range="U+0078-E616"
  />
<missing-glyph horiz-adv-x="374" 
d="M34 0v682h272v-682h-272zM68 34h204v614h-204v-614z" />
    <glyph glyph-name=".notdef" horiz-adv-x="374" 
d="M34 0v682h272v-682h-272zM68 34h204v614h-204v-614z" />
    <glyph glyph-name=".null" horiz-adv-x="0" 
 />
    <glyph glyph-name="nonmarkingreturn" horiz-adv-x="341" 
 />
    <glyph glyph-name="x" unicode="x" horiz-adv-x="1001" 
d="M281 543q-27 -1 -53 -1h-83q-18 0 -36.5 -6t-32.5 -18.5t-23 -32t-9 -45.5v-76h912v41q0 16 -0.5 30t-0.5 18q0 13 -5 29t-17 29.5t-31.5 22.5t-49.5 9h-133v-97h-438v97zM955 310v-52q0 -23 0.5 -52t0.5 -58t-10.5 -47.5t-26 -30t-33 -16t-31.5 -4.5q-14 -1 -29.5 -0.5
t-29.5 0.5h-32l-45 128h-439l-44 -128h-29h-34q-20 0 -45 1q-25 0 -41 9.5t-25.5 23t-13.5 29.5t-4 30v167h911zM163 247q-12 0 -21 -8.5t-9 -21.5t9 -21.5t21 -8.5q13 0 22 8.5t9 21.5t-9 21.5t-22 8.5zM316 123q-8 -26 -14 -48q-5 -19 -10.5 -37t-7.5 -25t-3 -15t1 -14.5
t9.5 -10.5t21.5 -4h37h67h81h80h64h36q23 0 34 12t2 38q-5 13 -9.5 30.5t-9.5 34.5q-5 19 -11 39h-368zM336 498v228q0 11 2.5 23t10 21.5t20.5 15.5t34 6h188q31 0 51.5 -14.5t20.5 -52.5v-227h-327z" />
    <glyph glyph-name="uniE600" unicode="&#xe600;" 
d="M974 682q-1 1 -4 5.5t-4 6.5q-74 113 -122 113q-26 0 -75.5 -61.5t-172.5 -242.5q-90 -132 -117 -168q-19 -24 -38 -39.5t-40.5 -24t-34 -11.5t-35.5 -6q-18 -3 -25 -4q-5 -1 -15.5 -3t-15.5 -3q-27 -5 -41.5 -8t-39.5 -9t-39 -13t-29 -17t-22 -24t-7 -30
q0 -59 27.5 -136.5t52.5 -97.5q23 -19 117.5 -41t183.5 -22q87 0 142 25q18 8 33.5 28t25 40.5t18.5 54t13 53t11 54.5q7 42 10 53q13 49 35.5 100.5t50.5 81.5l-14 -437q-1 -9 6 -15.5t16 -6.5h63q9 0 15.5 6t6.5 16q0 15 1.5 53t10 135t23.5 186q6 36 34 105
q15 36 22.5 57t15 57.5t7.5 72.5q0 19 -9 42.5t-17.5 37t-23.5 37.5zM938 394q-30 -72 -37 -114q-29 -178 -35 -359h-18l15 458q1 12 -9 19t-21 3q-31 -12 -58 -45.5t-45 -75t-27 -67.5t-15 -48q-3 -13 -11 -56q-6 -35 -11 -57.5t-14.5 -57t-22 -55.5t-28.5 -28
q-46 -21 -123 -21q-82 0 -169 20t-104 33q-15 13 -39.5 81t-24.5 119q0 11 13 20.5t38.5 16.5t43 11t47.5 9q21 4 31 6q8 2 23 4q25 3 40.5 7t41 13.5t49 29t46.5 48.5q30 38 119 170q181 267 212 284q27 -7 83 -92q2 -3 5 -7t4 -6q43 -64 43 -92q-1 -32 -8 -65.5
t-13.5 -52.5t-20.5 -53z" />
    <glyph glyph-name="uniE601" unicode="&#xe601;" 
d="M512 789q99 0 189.5 -39t156 -104.5t104.5 -156t39 -189.5t-39 -189.5t-104.5 -156t-156 -104.5t-189.5 -39t-189.5 39t-156 104.5t-104.5 156t-39 189.5t39 189.5t104.5 156t156 104.5t189.5 39zM512 812q-139 0 -257 -68.5t-186.5 -186.5t-68.5 -257t68.5 -257
t186.5 -186.5t257 -68.5t257 68.5t186.5 186.5t68.5 257t-68.5 257t-186.5 186.5t-257 68.5zM240 138h89v292h47v-292h139v370h-250v43h497v-43h-200v-143h181v-42h-181v-185h222v-43h-544v43z" />
    <glyph glyph-name="uniE602" unicode="&#xe602;" 
d="M914 678h-829q-5 0 -8.5 -3.5t-3.5 -8.5v-24q0 -6 3.5 -9.5t8.5 -3.5h61v-768q0 -5 3.5 -8.5t8.5 -3.5h25q5 0 8.5 3.5t3.5 8.5v86h610v-86q0 -5 3.5 -8.5t8.5 -3.5h24q5 0 8.5 3.5t3.5 8.5v768h61q5 0 8.5 3.5t3.5 9.5v24q0 5 -3.5 8.5t-8.5 3.5zM195 -5v634h610v-634
h-610zM244 581h512v-220h-512v220zM268 556v-170h463v170h-463zM561 459h-122v24h122v-24zM244 288h512v-219h-512v219zM268 264v-171h463v171h-463zM561 166h-122v24h122v-24z" />
    <glyph glyph-name="uniE603" unicode="&#xe603;" 
d="M903 517q8 0 8 -8v-461q0 -9 -8 -9h-783q-8 0 -8 9v461q0 8 8 8h75h28h18h8h27h47h580zM360 736q-9 0 -13 -8l-98 -162h-8l-51 45q-5 5 -12 5q-6 0 -11 -4q-11 -11 0 -22l28 -24h-75q-23 0 -39.5 -17t-16.5 -40v-461q0 -24 16.5 -40.5t39.5 -16.5h783q23 0 39.5 16.5
t16.5 40.5v461q0 23 -16.5 40t-39.5 17h-618l89 147q8 13 -6 21q-3 2 -8 2zM734 -47h-408q-15 0 -40.5 -24.5t-25.5 -40.5q0 -13 25 -13q8 0 22.5 1.5t18.5 1.5h408q4 0 15 -1t17 -1q24 0 24 14q0 10 -14 25.5t-28 26.5z" />
    <glyph glyph-name="uniE604" unicode="&#xe604;" 
d="M886 50q-56 0 -95.5 39t-39.5 94.5t39.5 94.5t95.5 39t95.5 -39t39.5 -94.5t-39.5 -94.5t-95.5 -39zM886 273q-37 0 -64 -26t-27 -63.5t27 -63.5t64.5 -26t64 26t26.5 63.5t-26.5 63.5t-64.5 26zM395 -168q-107 0 -197 51t-142.5 138.5t-52.5 190.5v136q0 9 6.5 15
t15.5 6h739q9 0 15.5 -6t6.5 -15v-136q0 -103 -52.5 -190.5t-142.5 -138.5t-196 -51zM47 326v-114q0 -91 46.5 -168.5t126.5 -123t174.5 -45.5t174.5 45.5t126.5 123t46.5 168.5v114h-695zM233 395q-8 0 -14 5q-3 3 -8 7.5t-16.5 17.5t-20.5 26t-16 32t-7 37q1 47 46 81
q35 26 34 53q-2 36 -57 74q-8 5 -10 14t3 16.5t14 9.5t17 -3q3 -2 8.5 -6t18.5 -15t22.5 -23t18 -30t9.5 -35q2 -50 -51 -90q-28 -21 -29 -47q0 -23 17.5 -47t34.5 -38q7 -5 8 -14t-5 -17t-17 -8zM419 395q-8 0 -14 5q-3 3 -8 7.5t-16.5 17.5t-20.5 26t-16 32t-6 37
q0 47 46 81q34 26 33 53q-2 35 -57 74q-7 5 -9 14t2.5 16.5t13.5 9.5t17 -3q4 -2 9.5 -6t18 -15t22 -23t18 -30t9.5 -35q2 -50 -51 -90q-28 -21 -28 -47q-1 -23 16.5 -47t34.5 -38q7 -5 8 -14t-5 -17t-17 -8zM605 395q-7 0 -13 5q-4 3 -9 7.5t-16.5 17.5t-20.5 26t-15.5 32
t-6.5 37q1 47 46 81q34 26 33 53q-2 37 -56 74q-8 5 -10 14t3 16.5t13.5 9.5t16.5 -3q4 -2 9.5 -6t18 -15.5t22.5 -23t18 -29.5t9 -35q2 -50 -51 -90q-28 -21 -28 -47q0 -23 17 -47t34 -38q7 -5 8 -14t-4 -17q-7 -8 -18 -8zM605 395z" />
    <glyph glyph-name="uniE605" unicode="&#xe605;" 
d="M179 95h666q32 0 54.5 22.5t22.5 54.5v410q0 31 -22.5 53.5t-54.5 22.5h-666q-32 0 -54.5 -22.5t-22.5 -53.5v-410q0 -32 22.5 -54.5t54.5 -22.5zM154 582q0 10 7.5 17.5t17.5 7.5h666q10 0 17.5 -7.5t7.5 -17.5v-410q0 -11 -7.5 -18.5t-17.5 -7.5h-666q-10 0 -17.5 7.5
t-7.5 18.5v410zM998 44h-972q-11 0 -18.5 -7.5t-7.5 -18.5v-51q0 -32 22.5 -54.5t54.5 -22.5h870q32 0 54.5 22.5t22.5 54.5v51q0 11 -7.5 18.5t-18.5 7.5zM947 -58h-870q-11 0 -18.5 7.5t-7.5 17.5v26h922v-26q0 -10 -7.5 -17.5t-18.5 -7.5z" />
    <glyph glyph-name="uniE606" unicode="&#xe606;" horiz-adv-x="1029" 
d="M154 64q-8 0 -13.5 5.5t-5.5 13.5v297q0 8 5.5 14t13.5 6t14 -6t6 -14v-297q0 -8 -6 -13.5t-14 -5.5zM339 485h-2q-8 1 -13 7t-5 14q11 159 -52 241q-26 33 -58 47q-44 -26 -52 -149q-5 -71 2 -138q1 -8 -4 -14.5t-13 -7t-14.5 4.5t-6.5 13q-8 70 -3 144q11 158 83 186
q6 2 12 1q6 -2 14.5 -5.5t29.5 -18.5t39 -37q33 -41 49 -101q20 -72 13 -169q0 -7 -6 -12.5t-13 -5.5zM320 -62h-139q-47 0 -80 33t-33 80v362q0 46 33 79t80 33h139q46 0 79.5 -33t33.5 -79v-362q0 -47 -33.5 -80t-79.5 -33zM181 487q-31 0 -52.5 -22t-21.5 -52v-362
q0 -31 21.5 -52.5t52.5 -21.5h139q30 0 52 21.5t22 52.5v362q0 30 -22 52t-52 22h-139zM1009 424zM805 485h-223q-12 0 -17 10l-130 239q-9 15 6 25q109 73 252.5 73t252.5 -73q15 -10 6 -25l-130 -239q-5 -10 -17 -10zM593 524h201l115 212q-95 57 -215.5 57t-215.5 -57z
M773 -62h-165q-30 0 -51.5 20t-21.5 48v1l42 458q1 24 17.5 41.5t39.5 17.5h114q23 0 39.5 -17.5t16.5 -41.5l43 -458v-1q0 -28 -21.5 -48t-52.5 -20zM574 5q0 -12 10 -20t24 -8h165q14 0 24.5 8t10.5 20l-42 457v2q0 9 -5.5 15t-12.5 6h-114q-7 0 -12.5 -6t-5.5 -15v-2z
M792 365h-203q-8 0 -13.5 5.5t-5.5 13.5t5.5 13.5t13.5 5.5h203q8 0 14 -5.5t6 -13.5t-6 -13.5t-14 -5.5zM666 486q-16 0 -19 16l-18 95q-1 7 3.5 14t12.5 8.5t14.5 -3t8.5 -12.5l17 -95q1 -7 -3.5 -14t-12.5 -8q-1 -1 -3 -1zM712 486q-2 0 -4 1q-8 1 -12.5 8t-2.5 14l17 95
q2 8 8.5 12.5t14.5 3t12.5 -8.5t2.5 -14l-17 -95q-3 -16 -19 -16z" />
    <glyph glyph-name="uniE607" unicode="&#xe607;" 
d="M677 -210q-22 0 -71 5q-94 10 -188 0q-49 -5 -71 -5q-53 0 -79 24q-31 28 -31 92v403q0 39 9.5 67.5t31.5 46t42 27.5t58.5 14t62 5t70.5 1t71 -1t63 -5t59 -14t42 -27.5t31.5 -46t9.5 -67.5v-403q0 -37 -10 -61.5t-28 -35.5t-34.5 -15t-37.5 -4zM512 -156q35 0 99 -6
q46 -5 66 -5q37 0 52 14.5t15 58.5v403q0 24 -5 42t-13.5 31t-25 21.5t-32 13t-43.5 7t-51 3.5t-61 1t-61.5 -1t-51.5 -3.5t-44 -7t-32.5 -13t-25 -21.5t-13.5 -31t-5 -42v-403q0 -45 17 -60q20 -18 116 -8q62 6 99 6zM703 433h-43v66q0 65 -43.5 111t-104.5 46t-104.5 -46
t-43.5 -111v-66h-43v66q0 83 56 141.5t135 58.5t135 -58.5t56 -141.5v-66zM597 654h-42q0 52 -8.5 82.5t-33.5 30.5t-33.5 -30.5t-8.5 -82.5h-43q0 17 0.5 28t2.5 32.5t7.5 35.5t14.5 29t24 23t35.5 8t36 -8t24 -23t14 -29t7.5 -35.5t2.5 -32.5t0.5 -28zM560 242h195v-43
h-195v43zM556 146h194v-43h-194v43zM560 50h195v-43h-195v43z" />
    <glyph glyph-name="uniE608" unicode="&#xe608;" 
d="M104 495q-1 -35 5 -68q23 -144 132 -238q67 -59 154 -83l2 -101q0 -35 25.5 -60t60.5 -24l46 1q35 1 60 26t26 60l4 40q2 14 -9 23q-8 8 -19.5 7t-19 -10t-6.5 -20l-7 -38q0 -12 -9 -21t-21 -10l-46 -1q-12 0 -20 8t-8 19l-2 89q41 -5 83 -2q47 4 88 17q25 9 37 14l10 5
q77 35 133 99q70 81 90 185t-14.5 204.5t-116.5 171.5t-186 91t-204 -14t-171 -115q-95 -109 -97 -255zM278 231q-58 51 -88 119.5t-29 142.5q3 80 48 145q65 91 174.5 110t201 -45t109.5 -172q20 -68 -13 -127q-34 -61 -102 -81q-67 -20 -129 13.5t-83 101.5q-10 34 7 65
t50.5 41t64.5 -7t41 -51l9 -27q2 -7 8 -13q9 -7 20.5 -6.5t19.5 9.5q10 12 6 26l-8 27q-17 57 -69 85t-108 11.5t-84 -68.5t-11 -108l10 -27q34 -78 112 -114.5t161 -11.5q64 19 108 69q15 18 27 38q45 82 18 172q-17 84 -73 148.5t-136.5 93t-165.5 14.5h-2l-2 -1
q85 37 182.5 22t172.5 -80q70 -61 99.5 -147t12.5 -175t-77.5 -159t-146.5 -99t-175.5 -11.5t-159.5 77.5z" />
    <glyph glyph-name="uniE609" unicode="&#xe609;" 
d="M1012 298q35 -149 -29 -244.5t-214 -151.5q-25 -10 -52 -24t-60 -33.5t-50 -28.5q-102 -55 -200 -1q-80 44 -291 155q-119 63 -116 191q2 67 0 291q-1 115 104 171q15 8 126 67.5t169 91.5q108 60 218 -2q143 -80 285 -153q110 -57 110 -180v-149v0zM483 67v173
q1 44 -39 64q-179 93 -335 178q-32 17 -45 8.5t-13 -41.5v-103v-103q0 -57 1 -103q1 -76 67 -113q37 -21 312 -167q30 -14 41.5 -5.5t10.5 39.5v173v0zM909 557q-1 6 -5 10.5t-7.5 6.5t-10.5 5t-10 5q-46 24 -146.5 78t-154.5 83q-68 37 -145 -4q-225 -119 -290 -154
q-34 -17 -34 -32.5t35 -32.5q14 -7 313 -166q52 -28 90 -8q49 27 105.5 57t123.5 65.5t106 55.5q26 14 30 31v0zM532 68v-173q0 -31 11 -39.5t42 5.5q80 43 301 161q70 37 72 110q4 119 2 322q0 58 -53 29q-41 -22 -117 -61t-96 -50q-50 -26 -69.5 -36.5t-44 -31
t-29.5 -29.5t-12 -39.5t-7 -52.5v-77v-38v0z" />
    <glyph glyph-name="uniE60A" unicode="&#xe60a;" 
d="M511 -210q-104 0 -198.5 40.5t-163 109t-109 163t-40.5 198.5t40.5 198.5t109 163t163 109t198.5 40.5t198.5 -40.5t163 -109t109 -163t40.5 -198.5t-40.5 -198.5t-109 -163t-163 -109t-198.5 -40.5zM514 788q-98 0 -187.5 -38t-154.5 -103t-103.5 -154.5t-38.5 -188
t38.5 -188t103.5 -154.5t154.5 -103t188 -38t188 38t154 103t103 154.5t38.5 188t-38.5 188t-103 154.5t-154 103t-188.5 38zM670 331v-48h-125v-68h125v-49h-125v-97h-67v97h-129v49h129v68h-129v48h108l-132 221h78l92 -172q8 -14 18 -36h1q7 18 18 38l93 170h73
l-134 -221h106z" />
    <glyph glyph-name="uniE60B" unicode="&#xe60b;" 
d="M979 589q-41 93 -115 164l-6 6q-71 65 -160 100t-185 35q-103 0 -197 -40.5t-162 -108.5t-108.5 -162t-40.5 -197q0 -60 14 -118q0 -2 1 -4q20 -82 67 -154q45 -70 111 -122t145 -81q82 -29 170 -29q90 0 174 31h1h1q72 27 133 74t106 110q93 131 93 293q0 106 -42 203z
M633 41q0 29 19 54.5t47 34.5q31 10 61 10q55 0 101 -31q-74 -93 -183 -136q-45 21 -45 68zM570 41q0 -53 34 -91q-45 -9 -91 -9q-76 0 -147 25q-69 24 -127 70q-57 44 -97 105q-41 61 -59 132q14 57 38 103q27 51 47 51q18 0 29.5 -15t29.5 -63q11 -27 17.5 -42t20 -38
t32 -39t41.5 -26q37 -16 71 -16q27 0 53.5 10.5t46 23t44 37.5t38 40.5t36.5 44.5q30 37 46 55t40 38t45 25q72 16 104 74q22 39 24 94q72 -111 72 -244q0 -121 -61 -225q-63 42 -137 42q-40 0 -80 -13q-48 -15 -78.5 -56.5t-31.5 -92.5zM341 797q82 34 172 34
q83 0 160.5 -29.5t138.5 -85.5q4 -16 8 -35t2.5 -55t-14.5 -59q-19 -34 -64 -44q-23 -5 -45 -17.5t-44.5 -35t-36.5 -38.5t-39 -48q-56 -69 -88 -96q-43 -36 -83 -36q-22 0 -45 10q-20 8 -35.5 27.5t-22.5 35.5t-19 46q-21 56 -38 79q-31 39 -79 40h-1q-56 0 -99 -78
q4 78 35 149q34 80 95.5 141t141.5 95z" />
    <glyph glyph-name="uniE60C" unicode="&#xe60c;" 
d="M85 648q-7 0 -13 3q-11 6 -14 17.5t3 21.5q74 133 209 182q67 25 121 23q12 0 20 -9t7.5 -20.5t-9 -19.5t-20.5 -8q-44 2 -102 -20q-113 -42 -177 -156q-8 -14 -25 -14zM894 648q-17 0 -25 14q-28 51 -68 87.5t-73 53t-68.5 25.5t-48.5 10t-20 0q-12 0 -21 8t-9 19.5
t8 20.5t19 9q55 2 122 -23q134 -49 209 -182q6 -10 2.5 -21.5t-13.5 -17.5q-6 -3 -14 -3zM377 183q-11 0 -20 8q-8 8 -8.5 19.5t7.5 20.5l108 114v204q0 12 8.5 20t20.5 8t20 -8t8 -20v-227l-123 -130q-9 -9 -21 -9zM500 -42q-81 0 -155.5 30.5t-132 87.5t-88 131
t-30.5 154.5t30.5 154t88 131t132 88t156 30.5t155.5 -30.5t131.5 -88t88 -131t30.5 -154t-30.5 -154.5t-88 -131t-131.5 -87.5t-156 -30.5zM500 703q-93 0 -172.5 -45.5t-125.5 -124.5t-46 -171.5t46 -171.5t125.5 -125t173 -46t172.5 46t125.5 125t46.5 171.5t-46.5 171.5
t-125.5 124.5t-173 45.5zM191 -84q-9 0 -16 4q-10 7 -12 18.5t4 20.5l81 123q6 9 17.5 11.5t21.5 -4t12.5 -18t-4.5 -20.5l-80 -123q-9 -12 -24 -12zM819 -84q-16 0 -24 12l-81 123q-6 9 -3.5 20.5t12 18t21.5 4t18 -11.5l81 -123q6 -9 3.5 -20.5t-12.5 -18.5q-7 -4 -15 -4z
" />
    <glyph glyph-name="uniE60D" unicode="&#xe60d;" 
d="M498 832q55 0 135 -15q41 -8 95 -21q4 -1 19 -4q20 -5 31 -8h1v0q39 -10 49 -12q48 -11 65 -11h22h16v32h-32v-16v-22v-486v4q-13 -113 -115 -196t-285 -127l-5 -1l-4 -1l8 -31l8 31l-4 1l-5 1q-184 45 -286 128.5t-115 198.5v-4v482v22v16h-32v-32h16h22q18 0 65 11
q10 2 50 12v0q13 3 32 8q15 3 19 4q54 13 94 21q81 15 136 15zM498 896q-61 0 -148 -16q-41 -8 -97 -22q-4 0 -19 -4l-32 -8v0q-39 -10 -49 -12q-41 -9 -51 -9h-22h-16h-32v-32v-16v-22v-482v-3q16 -138 131.5 -235.5t317.5 -146.5l6 -1l3 -1l8 -2l8 2l3 1l6 1
q201 49 316.5 146t131.5 231v4v486v22v16v32h-32h-16h-22q-10 0 -50 9q-10 2 -49 12v0q-12 3 -31 8q-16 4 -20 4q-56 14 -98 22q-86 16 -147 16zM759 246h-220v165h196h15v16v47v16h-15h-196v102h207h15v15v50v15h-15h-489h-15v-15v-50v-15h15h201v-346h-72v244v15h-16h-54
h-16v-15v-244h-61h-15v-15v-45v-16h15h520h16v16v45v15h-16z" />
    <glyph glyph-name="uniE60E" unicode="&#xe60e;" 
d="M362 513.5q0 -20.5 -14.5 -35t-35 -14.5t-35 14.5t-14.5 35t14.5 35t35 14.5t35 -14.5t14.5 -35zM362 513.5q0 -20.5 -14.5 -35t-35 -14.5t-35 14.5t-14.5 35t14.5 35t35 14.5t35 -14.5t14.5 -35zM797 513.5q0 -20.5 -14.5 -35t-35 -14.5t-35 14.5t-14.5 35t14.5 35
t35 14.5t35 -14.5t14.5 -35zM852 -43h-653q-41 0 -70.5 29t-29.5 70v508q0 42 29.5 71t70.5 29h653q42 0 71 -29t29 -71v-508q0 -41 -29 -70t-71 -29zM199 610q-19 0 -32 -13.5t-13 -32.5v-508q0 -18 13 -31.5t32 -13.5h653q19 0 32.5 13.5t13.5 31.5v508q0 19 -13.5 32.5
t-32.5 13.5h-653zM771 519h-55v227q0 19 -13 32t-32 13h-290q-19 0 -32.5 -13t-13.5 -32v-227h-54v227q0 41 29 70.5t71 29.5h290q41 0 70.5 -29.5t29.5 -70.5v-227z" />
    <glyph glyph-name="uniE60F" unicode="&#xe60f;" 
d="M764 295l-163 -163h-32v33l130 130h-439v32h504v-32zM764 441h-504v32l163 163h32v-33l-130 -130h439v-32zM512 -128q-139 0 -257 68.5t-186.5 186.5t-68.5 257t68.5 257t186.5 186.5t257 68.5q187 0 330 -121q18 -15 -19 -21l-5 -1q-133 110 -306 110
q-98 0 -186.5 -37.5t-153 -102t-102 -153t-37.5 -186.5t37.5 -186.5t102 -153t153 -102t186.5 -37.5t186.5 37.5t153 102t102 153t37.5 186.5q0 139 -73 256q0 1 1.5 3.5t5 7t7 7t8.5 1t9 -7.5q75 -123 75 -267q0 -139 -68.5 -257t-186.5 -186.5t-257 -68.5z" />
    <glyph glyph-name="uniE610" unicode="&#xe610;" 
d="M512 -124q-103 0 -197 40.5t-162 108.5t-108.5 162t-40.5 197t40.5 197t108.5 162t162 108.5t197 40.5t197 -40.5t162 -108.5t108.5 -162t40.5 -197t-40.5 -197t-108.5 -162t-162 -108.5t-197 -40.5zM512 851q-95 0 -181.5 -37t-149 -99.5t-99.5 -149t-37 -181.5
t37 -181.5t99.5 -149t149 -99.5t181.5 -37t181.5 37t149 99.5t99.5 149t37 181.5t-37 181.5t-99.5 149t-149 99.5t-181.5 37zM787.5 578q-52.5 53 -127.5 53t-128 -53l-174 -173q-6 -6 -6 -14.5t6 -14.5t14.5 -6t14.5 6l174 173q40 41 98.5 41t99 -41t40.5 -99t-40 -99
l-247 -246l-247 246q-40 41 -40 99t40 99q30 30 71.5 38.5t80.5 -7.5q8 -3 16 0t11 11t-0.5 16t-11.5 11q-50 20 -103.5 9.5t-92.5 -49.5q-52 -53 -52 -128t52 -128l262 -261q1 -1 3 -2q5 -4 11 -4q8 0 14 6l262 261q52 53 52 128t-52.5 128z" />
    <glyph glyph-name="uniE611" unicode="&#xe611;" horiz-adv-x="1035" 
d="M517.5 754q-118.5 0 -219 -43.5t-159 -118t-58.5 -161.5q0 -79 48.5 -148t130.5 -114l-86 -157q263 100 264 101q39 -6 79 -6q119 0 219.5 43.5t158.5 118t58 162t-58 162t-158.5 118t-219 43.5zM517 128q-38 0 -76 5h-3q-4 0 -8 -1q-8 -3 -211 -80q60 108 61 111
q5 17 -10 25q-78 42 -123 106t-45 137q0 82 55.5 151.5t151.5 110t208.5 40.5t208 -40.5t151.5 -110t56 -151.5t-56 -152t-151.5 -110.5t-208.5 -40.5zM516 648q18 -22 40 -51h178q18 -11 0 -22h-94q-22 -40 -41 -66h84q40 0 37 -36v-211q3 -44 -40 -40q-11 -4 -48 7
q-14 15 4 26q69 -22 62 11v200q0 22 -22 22h-298q-22 0 -22 -22v-230q-11 -18 -22 0v237q0 36 36 36h88q-15 26 -44 66h-95q-14 11 0 22h208q-15 22 -29 36q-4 22 18 15zM472 473q22 4 15 -18q-44 -37 -109 -58q-19 3 -4 21q58 19 98 55zM450 400h153q40 0 37 -36v-58
q3 -44 -37 -37h-153q-32 -3 -36 37v58q0 36 36 36zM596 378h-138q-22 0 -22 -21v-44q0 -26 22 -22h138q25 -4 22 22v44q3 21 -22 21zM439 575q22 -29 44 -66h91q22 29 40 66h-175zM570 455q-11 18 11 22q58 -37 99 -66q3 -18 -15 -18q-62 44 -95 62z" />
    <glyph glyph-name="uniE612" unicode="&#xe612;" horiz-adv-x="1035" 
d="M517.5 754q-118.5 0 -219 -43.5t-159 -118t-58.5 -161.5q0 -79 48.5 -148t130.5 -114l-22 -39q-21 -40 -42 -79l-22 -39q263 100 264 101q39 -6 79 -6q119 0 219.5 43.5t158.5 118t58 162t-58 162t-158.5 118t-219 43.5zM517 128q-38 0 -76 5h-3q-4 0 -8 -1
q-8 -3 -211 -80q60 108 61 111q5 17 -10 25q-78 42 -123 106t-45 137q0 82 55.5 151.5t151.5 110t208.5 40.5t208 -40.5t151.5 -110t56 -151.5t-56 -152t-151.5 -110.5t-208.5 -40.5zM484 631q14 14 32 0q99 -117 200 -157q15 -18 -7 -22q-116 55 -200 153q-11 11 -18 0
q-88 -102 -197 -145q-22 0 -11 18q113 43 201 153zM414 471h161q47 0 43 -44q4 -33 -3 -66q-4 -40 -51 -43q-22 0 -62 14q-11 18 11 22q72 -36 80 11q3 29 3 55q0 29 -29 29h-145q-22 0 -22 -22v-160q0 -33 29 -29h193q36 -8 33 80q10 14 21 0q8 -109 -54 -102h-200
q-44 -4 -44 43v175q4 37 36 37z" />
    <glyph glyph-name="uniE613" unicode="&#xe613;" horiz-adv-x="1025" 
d="M871 733q-73 0 -135 10.5t-97 24t-60.5 29.5t-34 24t-9.5 11h-45q-1 -3 -9.5 -11.5t-34.5 -24t-61 -29.5t-97 -24t-136 -10h-24v-492q0 -36 16 -70t41 -60.5t58.5 -51t67 -42t68 -32.5t59.5 -23.5t44.5 -15t20.5 -6.5l9 -5l10 5q1 0 20 6.5t44.5 15t60 23.5t68 32.5
t66.5 42t58 51t41 60.5t16 70v492h-25zM847 241q0 -36 -21.5 -69.5t-53 -57.5t-73.5 -46.5t-76 -35.5l-68 -26q-34 -13 -43 -17q-15 7 -56.5 24.5t-73 31t-72.5 36.5t-68 45t-46 52.5t-19 62.5v443q128 3 215.5 33t119.5 64q32 -34 119.5 -64t215.5 -33v-443zM477 631
q13 -22 21 -38h-208v-34h447v34h-196q-16 30 -29 55zM623 535l-34 21q-20 -34 -43 -65h-103l24 17q-16 22 -40 50l-27 -19q18 -24 34 -48h-114v-318h34v285h315v-208q0 -34 -29 -34q-23 0 -60 4q3 -13 7 -41h64q52 0 52 61v251h-116q15 18 36 44zM457 452q-47 -46 -97 -81
q8 -8 21 -28q47 36 100 84zM659 381q-34 27 -102 71l-20 -26q54 -37 99 -75zM604 375h-183v-154h33v25h150v129v0zM572 277h-118v67h118v-67z" />
    <glyph glyph-name="uniE614" unicode="&#xe614;" 
d="M751 29h-496v684h496v-684zM306 80h394v581h-394v-581zM548 -56q0 -17 -12 -29.5t-29.5 -12.5t-30 12.5t-12.5 29.5t12.5 29.5t30 12.5t29.5 -12.5t12 -29.5zM749 -194h-492q-36 0 -61.5 25.5t-25.5 61.5v818q0 36 25.5 61.5t61.5 25.5h492q36 0 62 -25.5t26 -61.5v-818
q0 -36 -26 -61.5t-62 -25.5zM257 747q-15 0 -25.5 -10.5t-10.5 -25.5v-818q0 -14 10.5 -24.5t25.5 -10.5h492q15 0 25.5 10.5t10.5 24.5v818q0 15 -10.5 25.5t-25.5 10.5h-492z" />
    <glyph glyph-name="uniE616" unicode="&#xe616;" horiz-adv-x="1073" 
d="M539.5 -7q-94.5 0 -161.5 5.5t-99 12.5t-49.5 18t-20 16.5t-2.5 14.5v369l-36 -19l-159 253l309 166h109v-29q0 -43 29.5 -74t71 -31t71 31t29.5 74v29h127l307 -165l-132 -252l-61 23v-375q0 -9 -2.5 -14.5t-20 -16.5t-49.5 -18t-99 -12.5t-161.5 -5.5zM264 73
q26 -9 99 -16t176.5 -7t176.5 7t99 16v444l91 -34l83 158l-245 131h-59q-10 -57 -53.5 -95t-101 -38t-101.5 38t-53 95h-41l-243 -130l99 -158l73 39v-450z" />
  </font>
</defs>
</svg>
